<svg xmlns="http://www.w3.org/2000/svg" version="1.1" xmlns:xlink="http://www.w3.org/1999/xlink" xmlns:svgjs="http://svgjs.dev/svgjs" width="2000" height="1080" viewBox="0 0 2000 1080"><g transform="matrix(1,0,0,1,-1.2121212121212466,-1.2146766934769175)"><svg viewBox="0 0 396 214" data-background-color="#ffffff" preserveAspectRatio="xMidYMid meet" height="1080" width="2000" xmlns="http://www.w3.org/2000/svg" xmlns:xlink="http://www.w3.org/1999/xlink"><g id="tight-bounds" transform="matrix(1,0,0,1,0.2400000000000091,0.24068593741117184)"><svg viewBox="0 0 395.52 213.51862812517766" height="213.51862812517766" width="395.52"><g><svg viewBox="0 0 395.52 213.51862812517766" height="213.51862812517766" width="395.52"><g transform="matrix(1,0,0,1,0,158.8683868163842)"><svg viewBox="0 0 395.52 54.650241308793454" height="54.650241308793454" width="395.52"><g id="textblocktransform"><svg viewBox="0 0 395.52 54.650241308793454" height="54.650241308793454" width="395.52" id="textblock"><g><svg viewBox="0 0 395.52 54.650241308793454" height="54.650241308793454" width="395.52"><g transform="matrix(1,0,0,1,0,0)"><svg width="395.52" viewBox="1.54 -39.79 358.13 49.48" height="54.650241308793454" data-palette-color="#011f4b"><path d="M21.24 0.71L21.24 0.71Q15.82 0.71 11.38-1.59L11.38-1.59Q6.88-3.86 4.21-8.42 1.54-12.99 1.54-19.65L1.54-19.65Q1.54-25.22 3.56-29.79L3.56-29.79Q5.59-34.3 9.51-36.95 13.43-39.6 18.99-39.6L18.99-39.6Q21.83-39.6 24.08-38.27 26.34-36.94 27.34-34.91L27.34-34.91 28.34-38.84 35.94-38.84 35.94-22.9 28.15-22.9 28.15-23.71Q28.15-26.81 26.72-28.78 25.29-30.76 22.49-30.76L22.49-30.76Q20.61-30.76 19.02-29.32L19.02-29.32Q17.46-27.86 16.55-25.5 15.65-23.14 15.65-20.65L15.65-20.65Q15.65-15.75 18.09-12.98 20.53-10.21 24.78-10.21L24.78-10.21Q27.78-10.21 30.36-11.21 32.93-12.21 34.59-13.35L34.59-13.35 35.13-12.89 35.13-2.49Q32.03-0.71 28.59 0 25.15 0.71 21.24 0.71ZM54.37 0.44L54.37 0.44Q49.92 0.44 46.63-1.2L46.63-1.2Q43.28-2.81 41.43-5.93 39.57-9.06 39.57-13.35L39.57-13.35Q39.57-17.63 41.43-20.61L41.43-20.61Q43.28-23.61 46.63-25.13 49.97-26.66 54.37-26.66L54.37-26.66Q58.88-26.66 62.22-25.1 65.55-23.54 67.38-20.57 69.21-17.6 69.21-13.35L69.21-13.35Q69.21-9.06 67.38-5.93L67.38-5.93Q65.52-2.81 62.17-1.18 58.81 0.44 54.37 0.44ZM54.37-6.69L54.37-6.69Q55.98-6.69 56.76-8.28L56.76-8.28Q57.52-9.81 57.52-13.35L57.52-13.35Q57.52-16.6 56.77-18.05 56.03-19.51 54.37-19.51L54.37-19.51Q52.78-19.51 52.02-18.05 51.27-16.6 51.27-13.35L51.27-13.35Q51.27-9.89 52.05-8.28L52.05-8.28Q52.83-6.69 54.37-6.69ZM84.17 0.44L84.17 0.44Q80.63 0.44 78.05-1.44L78.05-1.44Q75.48-3.32 74.15-6.48 72.82-9.64 72.82-13.45L72.82-13.45Q72.82-16.89 74.19-19.97L74.19-19.97Q75.56-23 78.06-24.83 80.56-26.66 83.98-26.66L83.98-26.66Q86.47-26.66 88.25-25.85 90.03-25.05 91.57-23.46L91.57-23.46 91.57-29.86 87.67-29.86 87.67-36.5 103.32-38.11 103.32-7.35 106.42-7.35 106.42 0 91.38 0 91.38-3.15Q90.18-1.54 88.33-0.57 86.47 0.39 84.17 0.44ZM88.08-6.69L88.08-6.69Q89.23-6.69 90.16-7.24 91.08-7.79 91.57-8.54L91.57-8.54 91.57-17.8Q91.01-18.46 90.07-18.98 89.13-19.51 88.08-19.51L88.08-19.51Q86.18-19.51 84.98-17.96 83.78-16.41 83.78-13.45L83.78-13.45Q83.78-10.45 84.88-8.57 85.98-6.69 88.08-6.69ZM124.41 0.44L124.41 0.44Q119.87 0.44 116.52-1.25L116.52-1.25Q113.15-2.91 111.36-6.01 109.56-9.11 109.56-13.26L109.56-13.26Q109.56-17.36 111.32-20.39L111.32-20.39Q113.05-23.39 116.23-25.02 119.4-26.66 123.67-26.66L123.67-26.66Q127.6-26.66 130.61-25.12L130.61-25.12Q133.61-23.56 135.26-20.7 136.91-17.85 136.91-14.04L136.91-14.04Q136.91-12.72 136.52-11.55L136.52-11.55 121.31-11.55Q121.31-9.25 123.04-7.87 124.77-6.49 127.21-6.49L127.21-6.49Q129.07-6.49 131.29-7.14 133.51-7.79 135.76-9.16L135.76-9.16 136.17-9.01 136.17-2.44Q133.66-1 131.01-0.28 128.36 0.44 124.41 0.44ZM121.31-16.55L121.31-16.55 121.31-15.84 127.56-15.84 127.56-16.36Q127.56-18.09 126.76-19.35 125.97-20.61 124.41-20.61L124.41-20.61Q123.11-20.61 122.21-19.32 121.31-18.04 121.31-16.55ZM159.29 0.71L159.29 0.71Q157.29 0.71 155.87 0.42 154.46 0.12 153.25-0.54 152.04-1.2 150.67-2.25L150.67-2.25 149.82 0 141.93 0 141.93-11.89 149.77-11.89Q150.53-9.84 152.1-9 153.68-8.15 155.97-8.15L155.97-8.15Q157.39-8.15 158.39-8.73 159.39-9.3 159.39-10.25L159.39-10.25Q159.39-11.45 158.36-12.05 157.34-12.65 155.48-13.16L155.48-13.16Q153.12-13.79 151.2-14.5 149.28-15.21 147.77-15.97L147.77-15.97Q144.74-17.48 142.89-20.26 141.03-23.05 141.03-27.66L141.03-27.66Q141.03-31.2 142.57-33.91L142.57-33.91Q144.08-36.6 146.93-38.1 149.77-39.6 153.63-39.6L153.63-39.6Q158.34-39.6 161.07-36.6L161.07-36.6 162.32-38.89 169.33-38.89 169.33-27.25 161.83-27.25Q160.78-29.44 159.51-30.3 158.24-31.15 156.02-31.15L156.02-31.15Q154.34-31.15 153.41-30.55 152.48-29.96 152.48-28.91L152.48-28.91Q152.48-27.73 153.82-27.12L153.82-27.12Q155.14-26.49 157.58-25.95L157.58-25.95Q161.86-24.98 164.96-23.49L164.96-23.49Q167.98-22 169.8-19.27 171.62-16.55 171.62-12.26L171.62-12.26Q171.62-8.62 170.11-5.66L170.11-5.66Q168.57-2.71 165.75-1 162.93 0.71 159.29 0.71ZM207.97-16.6L207.97-16.6 207.97-7.06 211.36-7.06 211.36 0 196.25 0 196.25-16.65Q196.25-17.7 195.58-18.51 194.91-19.31 193.96-19.31L193.96-19.31Q192.18-19.31 191.71-17.53L191.71-17.53Q191.22-15.7 191.22-12.4L191.22-12.4 191.22-7.06 191.27-7.06 191.27 0 176.01 0 176.01-7.06 179.55-7.06 179.55-18.6 176.01-18.6 176.01-25.2 191.22-26.66 191.22-23Q192.91-25 195.06-25.83 197.2-26.66 199.91-26.66L199.91-26.66Q207.97-26.66 207.97-16.6ZM223.13-28.71L223.13-28.71Q220.08-28.71 218.1-30.15 216.12-31.59 216.12-34.3L216.12-34.3Q216.12-37.01 218.1-38.4 220.08-39.79 223.18-39.79L223.18-39.79Q226.28-39.79 228.22-38.43 230.16-37.06 230.16-34.3L230.16-34.3Q230.16-31.59 228.17-30.15 226.18-28.71 223.13-28.71ZM228.96-7.35L232.11-7.35 232.11 0 214.12 0 214.12-7.35 217.27-7.35 217.27-18.6 214.12-18.6 214.12-24.61 228.96-26.15 228.96-7.35ZM253.23 2.34L253.23 9.69 235.24 9.69 235.24 2.29 238.39 2.29 238.39-18.6 235.24-18.6 235.24-25.15 250.08-26.66 250.08-22.51Q251.33-24.24 253.3-25.45 255.28-26.66 257.94-26.66L257.94-26.66Q261.43-26.66 263.9-24.85L263.9-24.85Q266.36-23.05 267.6-20 268.83-16.94 268.83-13.21L268.83-13.21Q268.83-9.5 267.61-6.35L267.61-6.35Q266.39-3.25 263.91-1.4 261.43 0.44 257.89 0.44L257.89 0.44Q255.43 0.44 253.41-0.52 251.4-1.49 250.08-2.91L250.08-2.91 250.08 2.34 253.23 2.34ZM253.6-6.69L253.6-6.69Q255.79-6.69 256.84-8.45 257.89-10.21 257.89-13.06L257.89-13.06Q257.89-15.99 256.75-17.75 255.6-19.51 253.74-19.51L253.74-19.51Q252.5-19.51 251.5-18.88 250.5-18.26 250.08-17.26L250.08-17.26 250.08-8.79Q251.18-6.69 253.6-6.69ZM290.12 2.34L290.12 9.69 272.12 9.69 272.12 2.29 275.27 2.29 275.27-18.6 272.12-18.6 272.12-25.15 286.97-26.66 286.97-22.51Q288.21-24.24 290.19-25.45 292.17-26.66 294.83-26.66L294.83-26.66Q298.32-26.66 300.79-24.85L300.79-24.85Q303.25-23.05 304.48-20 305.72-16.94 305.72-13.21L305.72-13.21Q305.72-9.5 304.5-6.35L304.5-6.35Q303.28-3.25 300.8-1.4 298.32 0.44 294.78 0.44L294.78 0.44Q292.31 0.44 290.3-0.52 288.29-1.49 286.97-2.91L286.97-2.91 286.97 2.34 290.12 2.34ZM290.48-6.69L290.48-6.69Q292.68-6.69 293.73-8.45 294.78-10.21 294.78-13.06L294.78-13.06Q294.78-15.99 293.63-17.75 292.48-19.51 290.63-19.51L290.63-19.51Q289.38-19.51 288.38-18.88 287.38-18.26 286.97-17.26L286.97-17.26 286.97-8.79Q288.07-6.69 290.48-6.69ZM323.85 0.44L323.85 0.44Q319.31 0.44 315.97-1.25L315.97-1.25Q312.6-2.91 310.81-6.01 309.01-9.11 309.01-13.26L309.01-13.26Q309.01-17.36 310.77-20.39L310.77-20.39Q312.5-23.39 315.68-25.02 318.85-26.66 323.12-26.66L323.12-26.66Q327.05-26.66 330.06-25.12L330.06-25.12Q333.06-23.56 334.71-20.7 336.35-17.85 336.35-14.04L336.35-14.04Q336.35-12.72 335.96-11.55L335.96-11.55 320.75-11.55Q320.75-9.25 322.49-7.87 324.22-6.49 326.66-6.49L326.66-6.49Q328.52-6.49 330.74-7.14 332.96-7.79 335.21-9.16L335.21-9.16 335.62-9.01 335.62-2.44Q333.11-1 330.46-0.28 327.81 0.44 323.85 0.44ZM320.75-16.55L320.75-16.55 320.75-15.84 327-15.84 327-16.36Q327-18.09 326.21-19.35 325.42-20.61 323.85-20.61L323.85-20.61Q322.56-20.61 321.66-19.32 320.75-18.04 320.75-16.55ZM352.68 0.44L352.68 0.44Q343.29 0.44 343.29-9.35L343.29-9.35 343.29-18.99 339.38-18.99 339.38-26.15 343.29-26.15 343.29-31.74 354.98-34.35 354.98-26.15 359.67-26.15 359.67-18.99 354.98-18.99 354.98-10.21Q354.98-9.11 355.81-8.37 356.64-7.64 357.89-7.64L357.89-7.64Q358.79-7.64 359.67-7.79L359.67-7.79 359.67-1Q356.44 0.44 352.68 0.44Z" opacity="1" transform="matrix(1,0,0,1,0,0)" fill="#011f4b" class="wordmark-text-0" data-fill-palette-color="primary" id="text-0"></path></svg></g></svg></g></svg></g></svg></g><g transform="matrix(1,0,0,1,131.2274169590226,0)"><svg viewBox="0 0 133.06516608195474 133.06516608195474" height="133.06516608195474" width="133.06516608195474"><g><svg></svg></g><g id="icon-0"><svg viewBox="0 0 133.06516608195474 133.06516608195474" height="133.06516608195474" width="133.06516608195474"><g><path d="M0 66.533c0-36.745 29.788-66.533 66.533-66.533 36.745 0 66.533 29.788 66.532 66.533 0 36.745-29.788 66.533-66.532 66.532-36.745 0-66.533-29.788-66.533-66.532zM66.533 128.137c34.023 0 61.604-27.581 61.604-61.604 0-34.023-27.581-61.604-61.604-61.605-34.023 0-61.604 27.581-61.605 61.605 0 34.023 27.581 61.604 61.605 61.604z" data-fill-palette-color="accent" fill="#dae5f4" stroke="transparent"></path><ellipse rx="65.8672572105676" ry="65.8672572105676" cx="66.53258304097737" cy="66.53258304097737" fill="#dae5f4" stroke="transparent" stroke-width="0" fill-opacity="1" data-fill-palette-color="accent"></ellipse></g><g transform="matrix(1,0,0,1,28.03029969276036,37.43202004523195)"><svg viewBox="0 0 77.00456669643403 58.201125991490834" height="58.201125991490834" width="77.00456669643403"><g><svg xmlns="http://www.w3.org/2000/svg" xmlns:xlink="http://www.w3.org/1999/xlink" version="1.1" x="0" y="0" viewBox="6.5 18 86 65" enable-background="new 0 0 100 100" xml:space="preserve" height="58.201125991490834" width="77.00456669643403" class="icon-dxe-0" data-fill-palette-color="quaternary" id="dxe-0"><g fill="#ffffff" data-fill-palette-color="quaternary"><path d="M35.845 61.275L25.125 56.185C23.916 55.613 23.185 54.722 23.185 53.482V53.164C23.185 51.924 23.916 51.033 25.125 50.46L35.845 45.371C36.226 45.18 36.576 45.053 37.022 45.053 38.04 45.022 38.962 45.912 38.962 47.057 38.962 47.979 38.453 48.616 37.626 48.997L28.02 53.291 37.626 57.586C38.453 57.967 38.962 58.699 38.962 59.59 38.962 60.767 38.04 61.594 36.862 61.562 36.513 61.562 36.163 61.435 35.845 61.275" fill="#ffffff" data-fill-palette-color="quaternary"></path><path d="M41.889 66.047L54.327 40.059C54.677 39.328 55.249 38.946 56.013 38.946 57.031 38.946 57.889 39.805 57.889 40.759 57.889 41.109 57.762 41.459 57.667 41.682L45.229 67.669C44.879 68.4 44.307 68.782 43.543 68.782 42.525 68.782 41.667 67.924 41.667 66.969 41.667 66.619 41.793 66.27 41.889 66.047" fill="#ffffff" data-fill-palette-color="quaternary"></path><path d="M64.155 45.371L74.875 50.46C76.083 51.033 76.815 51.924 76.815 53.164V53.482C76.815 54.722 76.084 55.613 74.875 56.185L64.155 61.275C63.774 61.466 63.424 61.593 62.978 61.593 61.96 61.624 61.038 60.734 61.038 59.589 61.038 58.666 61.547 58.03 62.374 57.649L71.98 53.354 62.374 49.06C61.547 48.679 61.038 47.947 61.038 47.056 61.038 45.879 61.961 45.052 63.138 45.083 63.487 45.084 63.837 45.212 64.155 45.371" fill="#ffffff" data-fill-palette-color="quaternary"></path></g><path d="M92.5 21A3 3 0 0 0 89.5 18H9.5A3 3 0 0 0 6.5 21V80A3 3 0 0 0 9.5 83H89.5A3 3 0 0 0 92.5 80zM26 20.833A2.167 2.167 0 1 1 26 25.168 2.167 2.167 0 0 1 26 20.833M20 20.833A2.167 2.167 0 1 1 20 25.168 2.167 2.167 0 0 1 20 20.833M14 20.833A2.167 2.167 0 1 1 14 25.168 2.167 2.167 0 0 1 14 20.833M88.5 79H10.5V29H88.5z" fill="#ffffff" data-fill-palette-color="quaternary"></path></svg></g></svg></g></svg></g></svg></g><g></g></svg></g><defs></defs></svg><rect width="395.52" height="213.51862812517766" fill="none" stroke="none" visibility="hidden"></rect></g></svg></g></svg>